<svg width="21" height="21" viewBox="0 0 21 21" fill="none" xmlns="http://www.w3.org/2000/svg">
<path d="M6.18311 1.70801H4.56046C2.69014 1.70801 1.70801 2.69014 1.70801 4.55192V6.17457C1.70801 8.03635 2.69014 9.01848 4.55192 9.01848H6.17457C8.03635 9.01848 9.01849 8.03635 9.01849 6.17457V4.55192C9.02703 2.69014 8.04489 1.70801 6.18311 1.70801Z" fill="#333333"/>
<path d="M15.9446 1.70801H14.3219C12.4602 1.70801 11.478 2.69014 11.478 4.55192V6.17457C11.478 8.03635 12.4602 9.01848 14.3219 9.01848H15.9446C17.8064 9.01848 18.7885 8.03635 18.7885 6.17457V4.55192C18.7885 2.69014 17.8064 1.70801 15.9446 1.70801Z" fill="#333333"/>
<path d="M15.9446 11.4696H14.3219C12.4602 11.4696 11.478 12.4517 11.478 14.3135V15.9362C11.478 17.7979 12.4602 18.7801 14.3219 18.7801H15.9446C17.8064 18.7801 18.7885 17.7979 18.7885 15.9362V14.3135C18.7885 12.4517 17.8064 11.4696 15.9446 11.4696Z" fill="#333333"/>
<path d="M6.18311 11.4696H4.56046C2.69014 11.4696 1.70801 12.4517 1.70801 14.3135V15.9362C1.70801 17.8065 2.69014 18.7886 4.55192 18.7886H6.17457C8.03635 18.7886 9.01849 17.8065 9.01849 15.9447V14.3221C9.02703 12.4517 8.04489 11.4696 6.18311 11.4696Z" fill="#333333"/>
</svg>
