<svg width="21" height="22" viewBox="0 0 21 22" fill="none" xmlns="http://www.w3.org/2000/svg">
<path d="M13.8269 2.63489L6.67015 2.63489C3.56149 2.63489 1.70825 4.48813 1.70825 7.59679L1.70825 14.745C1.70825 17.8622 3.56149 19.7154 6.67015 19.7154H13.8184C16.927 19.7154 18.7803 17.8622 18.7803 14.7535V7.59679C18.7888 4.48813 16.9356 2.63489 13.8269 2.63489ZM8.46361 14.7535C8.46361 15.3001 8.01952 15.7442 7.4644 15.7442C6.91782 15.7442 6.47373 15.3001 6.47373 14.7535L6.47373 11.9694C6.47373 11.4228 6.91782 10.9787 7.4644 10.9787C8.01952 10.9787 8.46361 11.4228 8.46361 11.9694L8.46361 14.7535ZM14.0233 14.7535C14.0233 15.3001 13.5792 15.7442 13.0327 15.7442C12.4775 15.7442 12.0334 15.3001 12.0334 14.7535L12.0334 7.59679C12.0334 7.05021 12.4775 6.60612 13.0327 6.60612C13.5792 6.60612 14.0233 7.05021 14.0233 7.59679L14.0233 14.7535Z" fill="#333333"/>
</svg>
