<svg width="17" height="17" viewBox="0 0 17 17" fill="none" xmlns="http://www.w3.org/2000/svg">
<path d="M8.50008 1.41675C4.59716 1.41675 1.41675 4.59716 1.41675 8.50008C1.41675 12.403 4.59716 15.5834 8.50008 15.5834C12.403 15.5834 15.5834 12.403 15.5834 8.50008C15.5834 4.59716 12.403 1.41675 8.50008 1.41675ZM11.5813 11.0288C11.4822 11.1988 11.3051 11.2909 11.1209 11.2909C11.0288 11.2909 10.9367 11.2697 10.8517 11.213L8.65591 9.90258C8.1105 9.57675 7.70675 8.86133 7.70675 8.23091V5.32675C7.70675 5.03633 7.94758 4.7955 8.238 4.7955C8.52841 4.7955 8.76925 5.03633 8.76925 5.32675V8.23091C8.76925 8.48591 8.98175 8.86133 9.20133 8.98883L11.3972 10.2992C11.6522 10.448 11.7372 10.7738 11.5813 11.0288Z" fill="url(#paint0_linear_142_13843)"/>
<defs>
<linearGradient id="paint0_linear_142_13843" x1="3.77786" y1="0.629711" x2="12.0417" y2="11.2547" gradientUnits="userSpaceOnUse">
<stop stop-color="#1FBE8E"/>
<stop offset="1" stop-color="#01855D"/>
</linearGradient>
</defs>
</svg>
