<svg width="21" height="21" viewBox="0 0 21 21" fill="none" xmlns="http://www.w3.org/2000/svg">
<path d="M13.4936 2.04587C13.1435 1.69572 12.5371 1.93484 12.5371 2.42164V5.4022C12.5371 6.64908 13.5961 7.68245 14.8857 7.68245C15.697 7.69099 16.8243 7.69099 17.7894 7.69099C18.2762 7.69099 18.5324 7.11879 18.1908 6.77718C16.961 5.53884 14.7576 3.30983 13.4936 2.04587Z" fill="#1FBE8E"/>
<path d="M17.5075 8.86094H15.0394C13.0153 8.86094 11.367 7.21267 11.367 5.18862V2.72048C11.367 2.25077 10.9827 1.86646 10.513 1.86646L6.89194 1.86646C4.26154 1.86646 2.13501 3.57451 2.13501 6.62339L2.13501 14.1901C2.13501 17.239 4.26154 18.947 6.89194 18.947H13.6046C16.235 18.947 18.3615 17.239 18.3615 14.1901V9.71497C18.3615 9.24525 17.9772 8.86094 17.5075 8.86094ZM9.82126 15.3174L6.40515 15.3174C6.055 15.3174 5.76463 15.027 5.76463 14.6769C5.76463 14.3267 6.055 14.0363 6.40515 14.0363L9.82126 14.0363C10.1714 14.0363 10.4618 14.3267 10.4618 14.6769C10.4618 15.027 10.1714 15.3174 9.82126 15.3174ZM11.5293 11.9013L6.40515 11.9013C6.055 11.9013 5.76463 11.6109 5.76463 11.2608C5.76463 10.9106 6.055 10.6202 6.40515 10.6202L11.5293 10.6202C11.8795 10.6202 12.1698 10.9106 12.1698 11.2608C12.1698 11.6109 11.8795 11.9013 11.5293 11.9013Z" fill="#1FBE8E"/>
</svg>
