<svg width="13" height="13" viewBox="0 0 13 13" fill="none" xmlns="http://www.w3.org/2000/svg">
<path d="M11.1692 4.57716C10.6004 2.07466 8.41751 0.947998 6.50001 0.947998C6.50001 0.947998 6.50001 0.947998 6.49459 0.947998C4.58251 0.947998 2.39417 2.06925 1.82542 4.57175C1.19167 7.36675 2.90334 9.73383 4.45251 11.2234C5.02667 11.7759 5.76334 12.0522 6.50001 12.0522C7.23667 12.0522 7.97334 11.7759 8.54209 11.2234C10.0913 9.73383 11.8029 7.37216 11.1692 4.57716ZM6.50001 7.29092C5.55751 7.29092 4.79376 6.52716 4.79376 5.58467C4.79376 4.64217 5.55751 3.87841 6.50001 3.87841C7.44251 3.87841 8.20626 4.64217 8.20626 5.58467C8.20626 6.52716 7.44251 7.29092 6.50001 7.29092Z" fill="#292D32"/>
</svg>
