<svg width="21" height="21" viewBox="0 0 21 21" fill="none" xmlns="http://www.w3.org/2000/svg">
<path d="M14.9969 1.93982L5.47451 1.93982C3.39923 1.93982 1.70825 3.63079 1.70825 5.70608L1.70825 11.2573V11.4281C1.70825 13.5119 3.39923 15.1943 5.47451 15.1943H8.75398C9.22369 15.1943 9.60801 15.5786 9.60801 16.0484V16.8768C9.60801 17.3465 9.22369 17.7308 8.75398 17.7308H6.68723C6.33708 17.7308 6.04671 18.0212 6.04671 18.3713C6.04671 18.7215 6.32854 19.0204 6.68723 19.0204H13.8184C14.1685 19.0204 14.4589 18.73 14.4589 18.3799C14.4589 18.0297 14.1685 17.7393 13.8184 17.7393H11.7516C11.2819 17.7393 10.8976 17.355 10.8976 16.8853V16.0569C10.8976 15.5872 11.2819 15.2029 11.7516 15.2029H15.0055C17.0893 15.2029 18.7717 13.5119 18.7717 11.4366V11.2658V5.71462C18.7632 3.63079 17.0722 1.93982 14.9969 1.93982Z" fill="#1FBE8E"/>
</svg>
