<svg width="11" height="11" viewBox="0 0 11 11" fill="none" xmlns="http://www.w3.org/2000/svg">
<path d="M8.03459 3.56133C8.0025 3.55675 7.97042 3.55675 7.93834 3.56133C7.22792 3.53841 6.66417 2.95633 6.66417 2.24133C6.66417 1.51258 7.25542 0.916748 7.98875 0.916748C8.7175 0.916748 9.31334 1.508 9.31334 2.24133C9.30875 2.95633 8.745 3.53841 8.03459 3.56133Z" fill="#292D32"/>
<path d="M9.52875 6.73744C9.01542 7.08119 8.29584 7.20952 7.63125 7.12244C7.80542 6.74661 7.89709 6.32952 7.90167 5.88952C7.90167 5.43119 7.80084 4.99577 7.60834 4.61536C8.28667 4.52369 9.00625 4.65202 9.52417 4.99577C10.2483 5.47244 10.2483 6.25619 9.52875 6.73744Z" fill="#292D32"/>
<path d="M2.95167 3.56133C2.98376 3.55675 3.01584 3.55675 3.04792 3.56133C3.75834 3.53841 4.32209 2.95633 4.32209 2.24133C4.32209 1.508 3.73084 0.916748 2.99751 0.916748C2.26876 0.916748 1.67751 1.508 1.67751 2.24133C1.67751 2.95633 2.24126 3.53841 2.95167 3.56133Z" fill="#292D32"/>
<path d="M3.00208 5.88961C3.00208 6.33419 3.09833 6.75586 3.27249 7.13628C2.62624 7.20503 1.95249 7.06753 1.45749 6.74211C0.733326 6.26086 0.733326 5.47711 1.45749 4.99586C1.94791 4.66586 2.63999 4.53294 3.29083 4.60628C3.10291 4.99128 3.00208 5.42669 3.00208 5.88961Z" fill="#292D32"/>
<path d="M5.555 7.27375C5.51833 7.26917 5.47708 7.26917 5.43583 7.27375C4.5925 7.24625 3.91875 6.55417 3.91875 5.70167C3.92333 4.83083 4.62458 4.125 5.5 4.125C6.37083 4.125 7.07666 4.83083 7.07666 5.70167C7.07208 6.55417 6.40291 7.24625 5.555 7.27375Z" fill="#292D32"/>
<path d="M4.06542 8.22246C3.37334 8.68538 3.37334 9.44621 4.06542 9.90454C4.85375 10.4316 6.14625 10.4316 6.93459 9.90454C7.62667 9.44163 7.62667 8.68079 6.93459 8.22246C6.15084 7.69538 4.85834 7.69538 4.06542 8.22246Z" fill="#292D32"/>
</svg>
