<svg width="22" height="22" viewBox="0 0 22 22" fill="none" xmlns="http://www.w3.org/2000/svg">
<path d="M17.1597 3.55717C17.1597 3.54837 17.1597 3.53957 17.1421 3.53077C16.9485 3.28437 16.6933 3.15237 16.3941 3.15237C15.9277 3.15237 15.3645 3.46037 14.7573 4.11156C14.0357 4.88595 12.927 4.82435 12.2934 3.97956L11.4046 2.80038C11.0526 2.32518 10.5862 2.08759 10.1198 2.08759C9.6534 2.08759 9.18701 2.32518 8.83501 2.80038L7.93742 3.98836C7.31263 4.82435 6.21265 4.88595 5.49106 4.12036L5.48226 4.11156C4.48787 3.04677 3.59908 2.88838 3.09749 3.53077C3.07989 3.53957 3.07989 3.54837 3.07989 3.55717C2.76309 4.23476 2.63989 5.18515 2.63989 6.52273V15.2522C2.63989 16.5898 2.76309 17.5402 3.07989 18.2178C3.07989 18.2266 3.08869 18.2442 3.09749 18.253C3.60788 18.8866 4.48787 18.7282 5.48226 17.6634L5.49106 17.6546C6.21265 16.889 7.31263 16.9506 7.93742 17.7866L8.83501 18.9746C9.18701 19.4498 9.6534 19.6874 10.1198 19.6874C10.5862 19.6874 11.0526 19.4498 11.4046 18.9746L12.2934 17.7954C12.927 16.9506 14.0357 16.889 14.7573 17.6634C15.3645 18.3146 15.9277 18.6226 16.3941 18.6226C16.6933 18.6226 16.9485 18.4994 17.1421 18.253C17.1509 18.2442 17.1597 18.2266 17.1597 18.2178C17.4765 17.5402 17.5997 16.5898 17.5997 15.2522V6.52273C17.5997 5.18515 17.4765 4.23476 17.1597 3.55717ZM12.3198 13.0874H7.03984C6.67904 13.0874 6.37984 12.7882 6.37984 12.4275C6.37984 12.0667 6.67904 11.7675 7.03984 11.7675H12.3198C12.6806 11.7675 12.9798 12.0667 12.9798 12.4275C12.9798 12.7882 12.6806 13.0874 12.3198 13.0874ZM14.0797 10.0075H7.03984C6.67904 10.0075 6.37984 9.70829 6.37984 9.34749C6.37984 8.9867 6.67904 8.6875 7.03984 8.6875H14.0797C14.4405 8.6875 14.7397 8.9867 14.7397 9.34749C14.7397 9.70829 14.4405 10.0075 14.0797 10.0075Z" fill="#333333"/>
</svg>
