<svg width="16" height="16" viewBox="0 0 16 16" fill="none" xmlns="http://www.w3.org/2000/svg">
<path d="M13 5.33333C13.9205 5.33333 14.6667 4.58714 14.6667 3.66667C14.6667 2.74619 13.9205 2 13 2C12.0795 2 11.3333 2.74619 11.3333 3.66667C11.3333 4.58714 12.0795 5.33333 13 5.33333Z" fill="#292D32"/>
<path d="M13 5.33333C13.9205 5.33333 14.6667 4.58714 14.6667 3.66667C14.6667 2.74619 13.9205 2 13 2C12.0795 2 11.3333 2.74619 11.3333 3.66667C11.3333 4.58714 12.0795 5.33333 13 5.33333Z" fill="#292D32"/>
<path d="M13.8133 6.20659C13.3467 6.35325 12.8333 6.37992 12.3 6.24658C11.4067 6.01325 10.68 5.29992 10.4333 4.40659C10.3133 3.97325 10.3067 3.54659 10.38 3.15992C10.4667 2.73325 10.1667 2.33325 9.74 2.33325H4.66667C2.66667 2.33325 1.33333 3.33325 1.33333 5.66658V10.3333C1.33333 12.6666 2.66667 13.6666 4.66667 13.6666H11.3333C13.3333 13.6666 14.6667 12.6666 14.6667 10.3333V6.83992C14.6667 6.39992 14.24 6.06659 13.8133 6.20659ZM10.3467 7.43325L9.56 8.05992C9.12 8.41325 8.56 8.58659 8 8.58659C7.44 8.58659 6.87333 8.41325 6.44 8.05992L4.35333 6.39325C4.14 6.21992 4.10667 5.89992 4.27333 5.68658C4.44667 5.47325 4.76 5.43325 4.97333 5.60659L7.06 7.27325C7.56667 7.67992 8.42667 7.67992 8.93333 7.27325L9.72 6.64658C9.93333 6.47325 10.2533 6.50659 10.42 6.72658C10.5933 6.93992 10.56 7.25992 10.3467 7.43325Z" fill="#292D32"/>
</svg>
