<svg width="37" height="27" viewBox="0 0 37 27" fill="none" xmlns="http://www.w3.org/2000/svg">
<path d="M0.000478671 5.9493C0.000957342 5.90465 0.00191468 5.86 0.00239336 5.81583C0.00239336 5.6502 0.00143601 5.48457 0.00143601 5.31894C0.00143601 5.27429 0.00143601 5.22965 0.00143601 5.18548C0.00143601 5.13987 0.00239336 5.09426 0.00287203 5.04913C0.0033507 4.95936 0.00430804 4.8691 0.00478671 4.77932C0.00382937 4.50855 0.00287203 4.23779 0.00143601 3.9675C0.0033507 2.9838 0.00143601 2.0001 0.00813741 1.01688C0.0119668 0.433093 0.521273 -0.0345125 1.0952 0.00677505C1.38815 0.0278989 1.60642 0.19881 1.82613 0.369241C2.52882 0.91462 3.23486 1.4552 3.93611 2.00202C4.99637 2.82969 6.04514 3.6732 7.11593 4.48743C7.83441 5.03377 8.52561 5.61612 9.25224 6.15045C9.70793 6.48555 10.145 6.84562 10.6021 7.17256C11.3191 7.68529 11.9945 8.24844 12.6977 8.77653C13.5119 9.38768 14.6359 9.19133 15.1188 8.12697C15.1925 7.9647 15.1921 7.76067 15.194 7.57535C15.2021 6.61422 15.1835 5.6526 15.2045 4.69195C15.2313 3.49077 15.7641 2.57908 16.8464 2.03178C17.5399 1.68084 18.2647 1.61651 19.0152 1.86711C20.0908 2.2267 20.7475 2.95595 21.0161 4.05631C21.0615 4.24211 21.0816 4.42358 21.0816 4.61129C21.0816 5.53354 21.074 6.45579 21.0845 7.37804C21.0903 7.8562 21.1678 8.31373 21.5306 8.68051C21.9844 9.139 22.8589 9.27582 23.4051 8.89511C24.0068 8.47552 24.5764 8.01367 25.1542 7.56383C25.9138 6.97236 26.6749 6.3833 27.4528 5.81583C27.9826 5.42936 28.4867 5.00785 29.006 4.60649C29.5465 4.18882 30.095 3.7817 30.634 3.36259C31.4894 2.69718 32.3385 2.02362 33.1935 1.35678C33.7066 0.956868 34.2197 0.556955 34.7429 0.170485C35.0493 -0.0561164 35.3963 -0.0412337 35.7223 0.116715C36.0684 0.284266 36.2732 0.568477 36.2737 0.971751C36.2751 2.15805 36.2751 3.34434 36.2766 4.53064C36.2766 4.6281 36.2818 4.72555 36.2847 4.82301C36.1684 4.91567 36.2761 5.01793 36.2756 5.11442C36.2723 6.11301 36.2881 7.11159 36.266 8.10921C36.256 8.56145 35.9707 8.84951 35.5495 8.98873C34.9679 9.18125 34.382 9.36128 33.799 9.55043C32.9958 9.81112 32.194 10.0761 31.3917 10.3387C30.5411 10.6172 29.6867 10.8846 28.8409 11.1774C28.4264 11.321 27.9913 11.4079 27.6011 11.6206C27.0779 11.7478 26.5615 11.8961 26.0675 12.1136C26.0057 12.1203 25.9397 12.1122 25.8908 12.165C25.8616 12.1683 25.8324 12.1722 25.8032 12.1755C25.629 12.2077 25.4624 12.261 25.3059 12.345C24.5965 12.5371 23.9154 12.8227 23.1964 12.9831H22.9303C23.0131 13.0844 23.1064 13.0628 23.1978 13.0556C23.464 13.1012 23.7196 13.1852 23.979 13.2562C24.3452 13.3566 24.687 13.5414 25.0728 13.574C25.1637 13.6801 25.3016 13.6729 25.4179 13.7186C26.0651 13.972 26.7314 14.1708 27.3881 14.3936C27.9908 14.5981 28.603 14.7906 29.2243 14.9476C29.6173 15.0465 29.9921 15.214 30.3803 15.335C30.9284 15.5059 31.4803 15.6629 32.0255 15.8453C33.1997 16.2385 34.3791 16.6164 35.5581 16.9951C35.9611 17.1248 36.2747 17.528 36.2751 17.9587C36.2771 20.2938 36.2771 22.629 36.2766 24.9641C36.2766 25.3592 36.1411 25.6939 35.7759 25.8772C35.3772 26.0774 34.9856 26.052 34.6213 25.7668C33.5434 24.9243 32.4654 24.0827 31.3826 23.2468C30.6493 22.6803 29.9112 22.1201 29.1688 21.5656C28.8356 21.3164 28.4963 21.0721 28.1779 20.808C27.749 20.4527 27.2804 20.1498 26.8736 19.7653C26.5978 19.5046 26.2767 19.2924 25.976 19.0576C25.3303 18.553 24.6851 18.048 24.0389 17.5439C23.8445 17.3922 23.655 17.2323 23.4511 17.095C22.8436 16.686 22.0375 16.7954 21.5273 17.3178C21.2061 17.6466 21.0769 18.0259 21.0797 18.4743C21.0859 19.4129 21.0721 20.3514 21.0874 21.29C21.0936 21.6861 21.0022 22.0625 20.8993 22.4317C20.8222 22.7072 20.6178 22.9367 20.446 23.1705C20.0611 23.6952 19.5422 24.0755 18.9286 24.2205C18.1766 24.3986 17.4255 24.3597 16.7075 23.9382C16.2691 23.6808 15.9488 23.3347 15.6607 22.9506C15.4908 22.7245 15.4118 22.4293 15.2916 22.1652C15.1313 21.2401 15.2251 20.3063 15.1969 19.3769C15.1969 19.3169 15.1959 19.2564 15.1959 19.1963C15.1959 19.1517 15.1959 19.1066 15.1954 19.0619C15.1949 18.9866 15.194 18.9112 15.1935 18.8358C15.1945 18.7609 15.1959 18.686 15.1969 18.6111C15.1949 18.5357 15.193 18.4604 15.1911 18.3845C15.2036 18.1555 15.1677 17.9395 15.0241 17.7518C14.8718 17.2914 14.5138 17.0484 14.0863 16.9063C13.6048 16.7465 13.1553 16.8727 12.759 17.1637C12.243 17.542 11.7418 17.9409 11.2349 18.3327C11.1765 18.3778 11.1138 18.4229 11.1028 18.506C11.0439 18.5401 10.9855 18.5737 10.9266 18.6078C10.616 18.8382 10.3044 19.0682 9.99418 19.2996C9.70362 19.5166 9.40493 19.7244 9.1273 19.9568C8.8985 20.1488 8.66347 20.3318 8.42748 20.5142C7.85499 20.9568 7.28633 21.4038 6.71624 21.8493C5.85702 22.521 4.99972 23.195 4.13811 23.8638C3.61923 24.2661 3.08982 24.6545 2.57334 25.0597C2.27369 25.2944 1.97835 25.534 1.67535 25.7649C1.31347 26.041 0.931015 26.0899 0.54377 25.8926C0.170886 25.7025 0.0033507 25.3703 0.00478671 24.9348C0.0129241 22.6386 0.0100521 20.3423 0.00765874 18.0461C0.00765874 17.7148 0.123497 17.4431 0.358525 17.2126C0.466226 17.1075 0.601211 17.0705 0.732846 17.022C1.11578 16.8814 1.51691 16.7964 1.89314 16.6346C1.94628 16.6116 2.01521 16.6202 2.03244 16.5439C2.12961 16.5352 2.22199 16.5127 2.30241 16.4546C2.36368 16.4469 2.43021 16.4599 2.48095 16.4099C2.53935 16.4027 2.59775 16.3955 2.65615 16.3878C2.92947 16.2947 3.20997 16.2217 3.46606 16.0835C3.49574 16.0815 3.52541 16.0791 3.55509 16.0772C3.69773 16.0551 3.83224 16.0081 3.96148 15.9452C4.0352 15.9471 4.08307 15.8933 4.14098 15.8612C4.34921 15.8453 4.54115 15.7757 4.72544 15.6821C4.84511 15.637 4.96526 15.5923 5.08492 15.5472C5.14332 15.539 5.20459 15.54 5.25964 15.5218C5.68135 15.3821 6.10162 15.238 6.52237 15.0959C6.59896 15.1022 6.66262 15.081 6.70666 15.0138C6.85218 15.0268 6.97663 14.9572 7.10731 14.9125C7.25187 14.9221 7.38685 14.8756 7.51992 14.8319C8.07088 14.6523 8.61895 14.4632 9.17086 14.2865C9.62895 14.1396 10.0861 13.9908 10.5293 13.8016C10.6332 13.7728 10.7596 13.8227 10.8395 13.7113C11.0286 13.6965 11.1966 13.6081 11.3756 13.5587C11.4201 13.5563 11.469 13.5649 11.5082 13.5491C11.9912 13.3518 12.4761 13.1655 13.0007 13.1064C13.106 13.0944 13.2075 13.0493 13.3588 13.0061C12.9212 12.9269 12.5436 12.8506 12.1764 12.7166C11.961 12.6384 11.7452 12.5467 11.5111 12.5289C10.9664 12.4007 10.4681 12.1405 9.93386 11.9797C9.18379 11.7536 8.44137 11.5005 7.69655 11.2571C7.25713 11.1136 6.81867 10.9672 6.38021 10.8212C5.75794 10.6143 5.13662 10.4031 4.50238 10.235C4.15056 10.066 3.77863 9.94794 3.40622 9.84473C2.82272 9.68342 2.25981 9.4621 1.68205 9.28494C1.3824 9.19325 1.0885 9.08187 0.787414 8.99545C0.276672 8.85287 -0.0067014 8.44335 0.00574405 7.93158C0.0148388 7.55663 0.00430804 7.1812 0.00287203 6.80577C0.00287203 6.76112 0.0033507 6.71648 0.00382937 6.67135C0.00382937 6.62622 0.00430804 6.58061 0.00478671 6.53548C0.0033507 6.49084 0.00143601 6.44619 0 6.40154C0 6.25079 0 6.09956 0.000478671 5.94882V5.9493ZM16.0441 13.7968V13.7978C16.0508 13.8875 16.1178 13.9303 16.18 13.9778C16.2102 14.0277 16.2538 14.057 16.3107 14.0671C16.4223 14.2409 16.5587 14.3926 16.719 14.5217C16.7339 14.5496 16.7487 14.5774 16.7635 14.6053C17.3135 15.3931 17.4892 16.2741 17.449 17.2222C17.4241 17.8055 17.4509 18.3908 17.4547 18.975C17.4543 19.2141 17.4538 19.4537 17.4528 19.6928C17.4528 20.0091 17.4528 20.3255 17.4519 20.6414C17.4528 20.7307 17.4533 20.8205 17.4543 20.9098L17.4552 21.0932C17.4552 21.1225 17.4557 21.1513 17.4562 21.1805C17.4054 21.4273 17.4902 21.6381 17.6366 21.8272C17.8109 22.0519 18.0674 22.0774 18.3087 22.0241C18.5093 21.9799 18.7256 21.8978 18.7816 21.641C18.8635 21.2641 18.8367 20.8839 18.8257 20.5036C18.8257 20.3697 18.8266 20.2353 18.8271 20.1013C18.8271 19.965 18.8271 19.8286 18.8271 19.6928C18.8271 19.5583 18.8271 19.4239 18.8266 19.2895C18.8266 19.0034 18.8266 18.7172 18.8266 18.4311C18.8276 18.0413 18.8285 17.6519 18.8295 17.2621C18.8281 17.1411 18.8271 17.0196 18.8257 16.8987C18.8285 16.7642 18.8314 16.6298 18.8338 16.4959C18.7926 16.2745 18.9448 16.082 18.9271 15.8645C18.9702 15.7959 18.9774 15.7191 18.9779 15.6408C19.0061 15.5318 19.0798 15.4435 19.1191 15.3422C19.2885 14.9034 19.5719 14.5457 19.8826 14.2025C20.2128 13.8381 20.6245 13.5889 21.0405 13.3436C21.0697 13.3402 21.0984 13.3369 21.1276 13.3335C21.4416 13.1665 21.7915 13.1146 22.1338 13.0152C21.7594 12.9341 21.411 12.7872 21.0453 12.6993C20.9802 12.6504 20.9203 12.5908 20.849 12.5548C20.3277 12.2903 19.9041 11.9216 19.5647 11.4405C19.1995 10.923 18.9578 10.3642 18.8802 9.73479C18.92 9.70166 18.9171 9.67334 18.8707 9.65029C18.8673 9.60276 18.864 9.55523 18.8606 9.5077C18.8841 9.31279 18.9118 9.11739 18.8309 8.92776C18.8295 8.88023 18.8285 8.8327 18.8271 8.78517C18.873 8.75877 18.8721 8.73092 18.8295 8.70212C18.8304 8.42991 18.8314 8.1577 18.8324 7.88549C18.8855 7.84324 18.885 7.79907 18.8386 7.75251L18.8352 7.57151C18.8826 7.52638 18.8855 7.4827 18.8324 7.43997C18.8314 7.10919 18.8304 6.77793 18.8295 6.44715C18.8309 6.41642 18.8319 6.38618 18.8333 6.35545C18.8348 5.78655 18.8324 5.21716 18.841 4.64826C18.8429 4.51095 18.796 4.39621 18.7237 4.2954C18.5504 4.05343 18.313 3.92237 18.0105 3.97422C17.7999 4.01022 17.6175 4.10576 17.5409 4.33044C17.506 4.34965 17.4959 4.38181 17.4969 4.41926C17.4165 4.79181 17.4452 5.16819 17.4538 5.5441C17.4538 5.57483 17.4547 5.60555 17.4552 5.63628C17.4552 5.71069 17.4557 5.78559 17.4562 5.86C17.4528 5.92049 17.4495 5.98098 17.4466 6.04099C17.449 6.65647 17.4509 7.27194 17.4533 7.88741C17.4533 7.94838 17.4533 8.00887 17.4533 8.06984C17.4519 8.50576 17.4504 8.94168 17.4495 9.3776C17.4026 9.41361 17.4011 9.46066 17.4174 9.51155C17.4131 9.63205 17.4088 9.75255 17.4045 9.87305C17.3633 9.89946 17.3585 9.92922 17.3954 9.96331C17.2886 10.2893 17.1824 10.6157 17.0756 10.9417C16.8813 11.2139 16.6865 11.4861 16.4921 11.7584C16.3892 11.8635 16.2863 11.9682 16.1839 12.0733C15.8675 12.284 15.5511 12.4948 15.2347 12.7056C15.1308 12.6849 15.071 12.7939 14.9743 12.7953C14.9388 12.7589 14.8891 12.7454 14.8517 12.7699C14.6306 12.9139 14.3755 12.9495 14.1227 13.0114C14.3927 13.0954 14.6703 13.1458 14.9321 13.2385C15.1978 13.3321 15.4544 13.4564 15.6918 13.6129C15.7804 13.6624 15.8512 13.743 15.9575 13.7598C15.9871 13.7723 16.0168 13.7853 16.0465 13.7978L16.0441 13.7968Z" fill="#060606"/>
</svg>
